<?xml version="1.0" standalone="no"?>
<!DOCTYPE svg PUBLIC "-//W3C//DTD SVG 20010904//EN"
 "http://www.w3.org/TR/2001/REC-SVG-20010904/DTD/svg10.dtd">
<svg version="1.0" xmlns="http://www.w3.org/2000/svg"
 width="16.000000pt" height="16.000000pt" viewBox="0 0 16.000000 16.000000"
 preserveAspectRatio="xMidYMid meet">
<metadata>
Created by potrace 1.11, written by Peter Selinger 2001-2013
</metadata>
<g transform="translate(0.000000,16.000000) scale(0.002286,-0.002286)"
fill="#000000" stroke="none">
<path d="M630 6777 c0 -17 410 -829 445 -881 119 -179 306 -301 540 -352 27
-5 809 -10 2520 -14 352 0 658 -5 680 -10 22 -5 56 -11 75 -14 51 -8 139 -40
203 -73 191 -101 324 -262 398 -483 26 -79 32 -114 35 -205 1 -60 -2 -135 -7
-165 -25 -135 10 -62 -1259 -2613 -370 -744 -368 -742 -486 -785 -132 -49
-257 -24 -362 71 -25 23 -43 38 -41 32 2 -5 113 -229 247 -497 219 -440 247
-491 289 -528 75 -66 124 -84 228 -85 79 0 97 3 147 28 31 15 73 44 93 65 35
36 297 556 1555 3087 399 801 411 829 465 1113 17 92 23 341 10 432 -28 197
-40 247 -90 365 -191 456 -482 781 -875 975 -121 60 -335 129 -445 145 -23 3
-52 8 -65 12 -25 7 -604 10 -2660 16 l-1075 3 -80 22 c-185 52 -344 156 -447
295 -21 28 -38 48 -38 44z"/>
<path d="M1540 4962 c124 -247 242 -471 262 -498 131 -175 332 -293 553 -323
40 -6 351 -9 716 -8 623 2 648 1 668 -17 12 -11 21 -29 21 -42 0 -12 -137
-296 -304 -631 -228 -453 -315 -618 -343 -647 -75 -77 -201 -113 -321 -92 -57
10 -97 31 -154 78 -27 22 -48 37 -48 35 0 -2 40 -85 89 -183 49 -98 156 -316
239 -484 163 -331 193 -374 290 -421 64 -32 76 -34 162 -33 92 2 145 23 218
89 47 43 64 71 161 269 60 121 182 370 271 551 89 182 215 438 280 570 65 132
179 366 255 520 513 1044 460 926 457 1019 -4 113 -60 208 -157 266 l-60 35
-515 2 c-283 2 -933 5 -1445 7 -511 2 -943 7 -960 10 -162 34 -322 116 -426
218 -42 41 -119 138 -119 149 0 5 -4 9 -8 9 -4 0 94 -202 218 -448z"/>
</g>
</svg>
