<?xml version="1.0" encoding="utf-8"?>
<!-- Generator: Adobe Illustrator 19.2.1, SVG Export Plug-In . SVG Version: 6.00 Build 0)  -->
<!DOCTYPE svg PUBLIC "-//W3C//DTD SVG 1.1//EN" "http://www.w3.org/Graphics/SVG/1.1/DTD/svg11.dtd">
<svg version="1.1" id="Layer_1" xmlns="http://www.w3.org/2000/svg" xmlns:xlink="http://www.w3.org/1999/xlink" x="0px" y="0px"
	 viewBox="0 0 593.5 98.6" style="enable-background:new 0 0 593.5 98.6;" xml:space="preserve">
<style type="text/css">
	.st0{fill:#FFFFFF;}
</style>
<g>
	<g>
		<g>
			<path class="st0" d="M205.4,55c0-2.9-0.3-5.4-1-7.6c-0.6-2.2-1.7-4-3.2-5.4c-1.5-1.4-3.4-2.5-5.8-3.2c-2.4-0.7-5.3-1-8.8-1
				c-2.5,0-4.8,0.2-7.1,0.6c-2.2,0.4-4.2,0.9-5.9,1.6c-1.7,0.7-3.1,1.4-4.1,2.3c-1,0.8-1.5,1.7-1.5,2.5c0,0.6,0.3,1.6,0.8,2.9
				c0.5,1.3,1.3,2.5,2.2,3.5c2-1.1,4.1-2.1,6.3-3c2.1-0.9,4.6-1.3,7.3-1.3c2.9,0,5.1,0.5,6.4,1.5c1.3,1,2,2.7,2,5.1v1.7
				c-0.6,0-1.3,0-2.1,0c-0.7,0-1.5,0-2.2,0.1c-2.3,0.1-4.8,0.4-7.6,0.8c-2.7,0.4-5.3,1.2-7.7,2.4c-2.4,1.2-4.3,2.8-5.9,4.8
				c-1.6,2-2.3,4.6-2.3,7.8c0,2.6,0.4,4.8,1.3,6.6c0.9,1.8,2,3.2,3.4,4.3c1.4,1.1,3,1.8,4.7,2.3c1.7,0.5,3.4,0.7,5.2,0.7
				c3.3,0,6.1-0.5,8.4-1.5c2.3-1,4.1-2.2,5.6-3.7c0.3,1.6,1.1,2.9,2.2,3.8c1.2,0.9,2.9,1.3,5.2,1.3c1.1,0,2.1-0.1,3.1-0.3
				c1-0.2,2.1-0.5,3.2-0.9c-1.5-2.3-2.2-5.9-2.2-10.8V55z M193.2,71.4c0,0.5-0.2,1.1-0.7,1.7c-0.5,0.6-1.1,1.1-2,1.7
				c-0.8,0.5-1.8,0.9-2.9,1.2c-1.1,0.3-2.2,0.5-3.4,0.5c-2.4,0-4.1-0.6-5.2-1.8c-1-1.2-1.5-2.7-1.5-4.5c0-1.6,0.4-2.9,1.1-3.9
				c0.8-1,1.8-1.8,3-2.4c1.2-0.6,2.6-1,4.2-1.3c1.6-0.3,3.1-0.5,4.7-0.6c0.4-0.1,0.9-0.1,1.3-0.1c0.4,0,0.9,0,1.3,0V71.4z M43,75.5
				c1-0.5,1.8-1.3,2.3-2.3l19.4-39.5c0.1-0.2,0.2-0.4,0.2-0.5c0.1-0.4,0.2-0.8,0.2-1.1c0-0.5,0-0.9-0.1-1.4
				c-0.2-0.8-0.6-1.5-1.1-2.1c-0.4-0.5-1-0.8-1.5-1.1c-0.4-0.2-0.8-0.3-1.2-0.3c-0.2,0-0.3,0-0.5,0c-9.3,0-24.4-0.1-35-0.1l-4.7,0
				c-4.5,0-8.7-2.6-10.7-6.7l4,8.1c0.6,1.2,1.5,3.1,2.5,5l0,0c2,4.1,6.2,6.7,10.8,6.7l0,0c6.2,0,14.6,0,18.1-0.1
				c0.3,0,0.7,0.2,0.9,0.5c0.2,0.3,0.2,0.7,0,1l-8.5,17c-0.5,1-1.3,1.8-2.2,2.2C33.2,62,30.2,61,29,58.5l7.3,14.8
				C37.6,75.7,40.6,76.8,43,75.5z M242.6,38.6c-0.7-0.3-1.5-0.6-2.4-0.7c-0.9-0.1-1.7-0.2-2.4-0.2c-1.3,0-2.5,0.2-3.6,0.6
				c-1.1,0.4-2.1,0.8-3,1.4c-0.9,0.6-1.7,1.2-2.3,1.9c-0.7,0.7-1.2,1.3-1.6,1.9c-0.4-1.6-1.3-2.8-2.8-3.6c-1.5-0.8-3.3-1.2-5.3-1.2
				c-0.7,0-1.3,0-1.8,0c-0.5,0-1,0.1-1.3,0.1l-1.1,0.2v44.6h13v-29c0-1.6,0.7-2.9,2-4.1c1.3-1.1,3-1.7,5-1.7c1.5,0,2.7,0.2,3.8,0.7
				c1.1,0.5,2.2,1.1,3.3,2c0.7-1.3,1.4-2.8,2.1-4.6c0.7-1.8,1.1-3.4,1.1-4.7c0-0.9-0.2-1.6-0.7-2.2C244,39.4,243.4,38.9,242.6,38.6z
				 M156.2,24.7c-4.3-3.2-11.1-4.9-20.5-4.9c-2.4,0-5.1,0.1-8.1,0.2c-3,0.2-5.9,0.4-8.8,0.7v62.8H132V61.1h4.6c3.5,0,6.8-0.4,10-1.1
				c3.2-0.8,5.9-2,8.3-3.7c2.4-1.7,4.3-4,5.7-6.8c1.4-2.8,2.1-6.3,2.1-10.4C162.7,32.7,160.5,28,156.2,24.7z M145.6,49.3
				c-2.4,1.8-6,2.7-10.6,2.7h-3.2V29.3c1.4-0.2,3.1-0.3,5.2-0.3c3.6,0,6.6,0.8,8.9,2.5c2.3,1.6,3.4,4.4,3.4,8.2
				C149.3,44.3,148.1,47.5,145.6,49.3z M81.4,18.2c-1.4-2.1-3-4-5-5.7c-1.8-1.5-3.8-2.8-6-3.7c-2.2-1-4.5-1.6-6.8-1.9
				c-0.7-0.1-1.3-0.1-2-0.2c-0.4,0-0.4,0-0.8,0C48.2,6.7,27,6.7,14.2,6.7l-3.4,0C6.2,6.7,2,4.1,0,0l4,8.1c0.6,1.2,1.5,3,2.4,4.8l0,0
				c2,4.1,6.2,6.7,10.7,6.7h0c14.5,0,29,0,43.6,0.1c0.5,0,0.9,0,1.4,0.1c1.1,0.1,2.1,0.4,3.1,0.8c1.3,0.5,2.5,1.3,3.5,2.2
				c0.9,0.9,1.8,1.9,2.4,3c0.6,1.1,1,2.2,1.3,3.4c0.2,1.1,0.3,2.3,0.2,3.4c-0.1,1.1-0.3,2.2-0.7,3.2c-0.2,0.4-0.3,0.8-0.5,1.2
				l-22,44.2c-0.5,1-1.3,1.8-2.2,2.2c-2.5,1.2-5.5,0.2-6.7-2.3l7.2,14.5c1.2,2.5,4.2,3.5,6.7,2.3c1-0.5,1.8-1.3,2.2-2.3l26.4-53
				c0.1-0.3,0.2-0.4,0.3-0.7c0.3-0.6,0.5-1.2,0.8-1.9c0.7-2,1.2-4.1,1.4-6.2c0.3-2.9,0-5.8-0.7-8.6C84,22.9,82.9,20.5,81.4,18.2z
				 M275,71.8c-0.2,0.2-0.5,0.5-1,0.8c-0.4,0.4-1,0.7-1.7,1.1c-0.7,0.3-1.4,0.7-2.2,0.9c-0.8,0.3-1.6,0.4-2.5,0.4
				c-3.6,0-5.5-2.2-5.5-6.6V48.4h13.4v-9.6h-13.4v-6.6c0-1.6-0.3-2.8-0.8-3.8c-0.5-1-1.2-1.7-2-2.3c-0.8-0.6-1.8-0.9-2.8-1.1
				c-1-0.2-2-0.3-3.1-0.3c-0.5,0-1,0-1.5,0c-0.5,0-1,0.1-1.4,0.1l-1.4,0.2v43.8c0,1.4,0.1,2.8,0.2,4.1c0.1,1.4,0.4,2.7,0.9,4
				c0.9,2.5,2.4,4.4,4.6,5.9c2.2,1.5,5.3,2.3,9.3,2.3c2,0,3.9-0.2,5.6-0.6c1.7-0.4,3.2-0.9,4.4-1.6c1.2-0.7,2.2-1.4,2.8-2.2
				c0.7-0.8,1-1.6,1-2.4c0-0.9-0.3-1.8-0.8-2.8C276.7,74.4,276,73.2,275,71.8z M535.5,47.3c-0.6-2.9-2-5.2-4.2-7
				c-2.2-1.8-5.5-2.6-10-2.6c-3.8,0-6.9,0.6-9.1,1.8c-2.2,1.2-3.9,2.6-5,4c-0.4-1.8-1.3-3.1-2.8-3.8c-1.5-0.7-3.3-1.1-5.3-1.1
				c-0.7,0-1.3,0-1.8,0c-0.5,0-1,0.1-1.3,0.1l-1.1,0.2v44.6h13.1V53.1c0-1.4,0.8-2.7,2.5-3.6c1.7-1,3.7-1.5,6.1-1.5
				c1.7,0,3,0.2,3.9,0.7c0.9,0.5,1.6,1.1,2,2c0.4,0.8,0.7,1.9,0.8,3.1c0.1,1.2,0.1,2.5,0.1,3.9v26h13V57c0-1.6,0-3.3-0.1-5
				C536,50.3,535.8,48.8,535.5,47.3z M323.7,47.3c-0.6-2.9-2-5.2-4.2-7c-2.2-1.8-5.5-2.6-10-2.6c-3.8,0-6.9,0.6-9.1,1.8
				c-2.2,1.2-3.9,2.6-5,4c-0.4-1.8-1.3-3.1-2.8-3.8c-1.5-0.7-3.3-1.1-5.3-1.1c-0.7,0-1.3,0-1.8,0c-0.5,0-1,0.1-1.3,0.1L283,39v44.6
				h13.1V53.1c0-1.4,0.8-2.7,2.5-3.6c1.7-1,3.7-1.5,6.1-1.5c1.7,0,3,0.2,3.9,0.7c0.9,0.5,1.6,1.1,2,2c0.4,0.8,0.7,1.9,0.8,3.1
				c0.1,1.2,0.1,2.5,0.1,3.9v26h13V57c0-1.6,0-3.3-0.1-5C324.2,50.3,324,48.8,323.7,47.3z M478.5,17.1c-2,0-3.6,0.6-5,1.9
				c-1.3,1.3-2,2.9-2,5c0,2,0.7,3.6,2,4.9c1.3,1.3,3,1.9,5,1.9c1.9,0,3.6-0.6,4.9-1.9c1.4-1.3,2.1-2.9,2.1-4.9c0-2-0.7-3.7-2.1-5
				C482.1,17.7,480.4,17.1,478.5,17.1z M455,21.8c-1.4,1.1-2.4,2.8-3.1,5L438.5,70L425.4,27c-0.7-2.3-1.8-4-3.2-5.2
				c-1.4-1.2-3.4-1.8-5.8-1.8c-1.5,0-2.9,0.1-4.2,0.3c-1.3,0.2-2.3,0.4-2.9,0.7l21.5,63.1h14.5L467.2,21c-2.5-0.6-4.7-0.9-6.5-0.9
				C458.3,20.1,456.4,20.6,455,21.8z M482.6,40c-0.8-0.5-1.8-0.9-2.8-1.1c-1-0.2-2-0.3-3.1-0.3c-1,0-2,0-2.9,0.1
				c-0.9,0.1-1.4,0.2-1.5,0.2v37.7c0,3.1,0.8,5.2,2.3,6.3c1.6,1,3.6,1.6,6.1,1.6c1,0,2,0,2.9-0.1c0.9-0.1,1.5-0.2,1.7-0.3V46.1
				c0-1.6-0.3-2.8-0.8-3.8C484.1,41.3,483.5,40.5,482.6,40z M408.4,38.6c-0.7-0.3-1.5-0.6-2.4-0.7c-0.9-0.1-1.7-0.2-2.4-0.2
				c-1.3,0-2.5,0.2-3.6,0.6c-1.1,0.4-2.1,0.8-3,1.4c-0.9,0.6-1.7,1.2-2.3,1.9c-0.7,0.7-1.2,1.3-1.6,1.9c-0.4-1.6-1.3-2.8-2.8-3.6
				c-1.5-0.8-3.3-1.2-5.3-1.2c-0.7,0-1.3,0-1.8,0c-0.5,0-1,0.1-1.3,0.1l-1.1,0.2v44.6h13v-29c0-1.6,0.7-2.9,2-4.1
				c1.3-1.1,3-1.7,5-1.7c1.5,0,2.7,0.2,3.8,0.7c1.1,0.5,2.2,1.1,3.3,2c0.7-1.3,1.4-2.8,2.1-4.6c0.7-1.8,1.1-3.4,1.1-4.7
				c0-0.9-0.2-1.6-0.7-2.2C409.7,39.4,409.1,38.9,408.4,38.6z M368.8,43.8c-1.6-1.9-3.6-3.3-6.1-4.4c-2.5-1.1-5.5-1.7-9.1-1.7
				c-2.7,0-5.4,0.4-8,1.3c-2.6,0.9-5,2.3-7,4.1c-2.1,1.9-3.7,4.3-5,7.1c-1.2,2.9-1.9,6.3-1.9,10.2c0,4.8,0.7,8.8,2.1,12
				c1.4,3.2,3.2,5.7,5.5,7.6c2.3,1.9,4.8,3.2,7.8,4c2.9,0.8,5.9,1.1,8.9,1.1c3.3,0,6.2-0.4,8.7-1.1c2.5-0.7,4.4-1.6,5.7-2.6
				c1.6-1.1,2.4-2.4,2.4-3.8c0-0.9-0.4-2.2-1.2-3.6c-0.8-1.5-1.6-2.7-2.4-3.6c-0.6,0.5-1.2,1.1-1.9,1.7c-0.7,0.6-1.5,1.1-2.5,1.7
				c-1,0.5-2,0.9-3.3,1.3c-1.2,0.3-2.6,0.5-4.2,0.5c-4.1,0-7.2-1.1-9.1-3.4c-1.9-2.3-3-5.2-3.3-8.6h28.1c0.1-0.3,0.1-0.7,0.1-1.3
				c0-0.5,0.1-1.1,0.1-1.7c0-0.6,0-1.1,0-1.6c0-0.5,0-0.9,0-1.3c0-2.6-0.4-5.2-1.1-7.5C371.5,47.8,370.3,45.6,368.8,43.8z
				 M344.7,56.5c0-3.2,0.8-5.7,2.3-7.5c1.5-1.8,3.6-2.7,6.3-2.7c3.1,0,5.2,0.9,6.4,2.8c1.2,1.9,1.8,4.3,1.8,7.4H344.7z M584,50.1
				c-0.7-2.4-1.8-4.5-3.4-6.4c-1.6-1.9-3.6-3.3-6.1-4.4c-2.5-1.1-5.5-1.7-9.1-1.7c-2.7,0-5.4,0.4-8,1.3c-2.6,0.9-5,2.3-7,4.1
				c-2.1,1.9-3.7,4.3-5,7.1c-1.2,2.9-1.9,6.3-1.9,10.2c0,4.8,0.7,8.8,2.1,12c1.4,3.2,3.2,5.7,5.5,7.6c2.3,1.9,4.8,3.2,7.8,4
				c2.9,0.8,5.9,1.1,8.9,1.1c3.3,0,6.2-0.4,8.7-1.1c2.5-0.7,4.4-1.6,5.7-2.6c1.6-1.1,2.4-2.4,2.4-3.8c0-0.9-0.4-2.2-1.2-3.6
				c-0.8-1.5-1.6-2.7-2.4-3.6c-0.6,0.5-1.2,1.1-1.9,1.7c-0.7,0.6-1.5,1.1-2.5,1.7c-1,0.5-2,0.9-3.3,1.3c-1.2,0.3-2.6,0.5-4.2,0.5
				c-4.1,0-7.2-1.1-9.1-3.4c-1.9-2.3-3-5.2-3.3-8.6h28.1c0.1-0.3,0.1-0.7,0.1-1.3c0-0.5,0.1-1.1,0.1-1.7c0-0.6,0-1.1,0-1.6
				c0-0.5,0-0.9,0-1.3C585,55.1,584.7,52.5,584,50.1z M556.5,56.5c0-3.2,0.8-5.7,2.3-7.5c1.5-1.8,3.6-2.7,6.3-2.7
				c3.1,0,5.2,0.9,6.4,2.8c1.2,1.9,1.8,4.3,1.8,7.4H556.5z"/>
		</g>
	</g>
</g>
</svg>
